# xmcd
#
# Track frame offsets: 
#        150
#        18161
#        41415
#        58508
#        72580
#        97757
#        108760
#        130712
#        153510
#        168034
#        193988
#        214559
#
# Disc length: 3064 seconds
#
# Revision: 0
# Processed by: cddbd v1.5.2PL0 Copyright (c) Steve Scherf et al.
# Submitted via: ExactAudioCopyFreeDBPlugin 1.0
#
DISCID=930bf60c
DTITLE=Andre Cymone - 1969
DYEAR=2017
DGENRE=R&B
TTITLE0=We All Need Somethin'
TTITLE1=Money
TTITLE2=California Way
TTITLE3=Already There
TTITLE4=Breathin' Out Breathin' In
TTITLE5=It's Rock and Roll, Man
TTITLE6=Point and Click
TTITLE7=Black Lives Matter
TTITLE8=It Ain't Much
TTITLE9=Black Man in America (featuring Mic Murphy)
TTITLE10=1969
TTITLE11=Is That You
EXTD=
EXTT0=
EXTT1=
EXTT2=
EXTT3=
EXTT4=
EXTT5=
EXTT6=
EXTT7=
EXTT8=
EXTT9=
EXTT10=
EXTT11=
PLAYORDER=
